<svg xmlns="http://www.w3.org/2000/svg" xmlns:xlink="http://www.w3.org/1999/xlink" id="visual" width="960" height="540" version="1.1" viewBox="0 0 960 540"><rect width="960" height="540" x="0" y="0" fill="#001220"/><path fill="#9324c7" d="M0 382L22.8 382.7C45.7 383.3 91.3 384.7 137 384.8C182.7 385 228.3 384 274 386C319.7 388 365.3 393 411.2 400.2C457 407.3 503 416.7 548.8 418.8C594.7 421 640.3 416 686 410.8C731.7 405.7 777.3 400.3 823 393.8C868.7 387.3 914.3 379.7 937.2 375.8L960 372L960 541L937.2 541C914.3 541 868.7 541 823 541C777.3 541 731.7 541 686 541C640.3 541 594.7 541 548.8 541C503 541 457 541 411.2 541C365.3 541 319.7 541 274 541C228.3 541 182.7 541 137 541C91.3 541 45.7 541 22.8 541L0 541Z"/><path fill="#7719a5" d="M0 426L22.8 426.5C45.7 427 91.3 428 137 427.7C182.7 427.3 228.3 425.7 274 430.3C319.7 435 365.3 446 411.2 446.2C457 446.3 503 435.7 548.8 436.2C594.7 436.7 640.3 448.3 686 448.5C731.7 448.7 777.3 437.3 823 430.3C868.7 423.3 914.3 420.7 937.2 419.3L960 418L960 541L937.2 541C914.3 541 868.7 541 823 541C777.3 541 731.7 541 686 541C640.3 541 594.7 541 548.8 541C503 541 457 541 411.2 541C365.3 541 319.7 541 274 541C228.3 541 182.7 541 137 541C91.3 541 45.7 541 22.8 541L0 541Z"/><path fill="#5d0f85" d="M0 452L22.8 452C45.7 452 91.3 452 137 455.8C182.7 459.7 228.3 467.3 274 467.7C319.7 468 365.3 461 411.2 460.2C457 459.3 503 464.7 548.8 466.2C594.7 467.7 640.3 465.3 686 466.3C731.7 467.3 777.3 471.7 823 470.3C868.7 469 914.3 462 937.2 458.5L960 455L960 541L937.2 541C914.3 541 868.7 541 823 541C777.3 541 731.7 541 686 541C640.3 541 594.7 541 548.8 541C503 541 457 541 411.2 541C365.3 541 319.7 541 274 541C228.3 541 182.7 541 137 541C91.3 541 45.7 541 22.8 541L0 541Z"/><path fill="#440566" d="M0 492L22.8 493.3C45.7 494.7 91.3 497.3 137 499.5C182.7 501.7 228.3 503.3 274 504.8C319.7 506.3 365.3 507.7 411.2 508C457 508.3 503 507.7 548.8 502.3C594.7 497 640.3 487 686 485.3C731.7 483.7 777.3 490.3 823 495.3C868.7 500.3 914.3 503.7 937.2 505.3L960 507L960 541L937.2 541C914.3 541 868.7 541 823 541C777.3 541 731.7 541 686 541C640.3 541 594.7 541 548.8 541C503 541 457 541 411.2 541C365.3 541 319.7 541 274 541C228.3 541 182.7 541 137 541C91.3 541 45.7 541 22.8 541L0 541Z"/></svg>